<svg width="24" height="24" viewBox="0 0 24 24" fill="none" xmlns="http://www.w3.org/2000/svg">
<path d="M10.3266 0.482813C8.27344 0.778125 6.28594 1.6125 4.59844 3.00469L8.22656 6.63281C9.52969 4.95469 10.2563 2.82656 10.3266 0.482813ZM12 10.4062L19.4016 3.00469C17.4141 1.36406 15.0141 0.496875 12.5812 0.375C12.525 3.37031 11.5734 6.10781 9.82969 8.23594L12 10.4062ZM3.00469 4.59844C1.6125 6.28594 0.778125 8.27344 0.482812 10.3266C2.82656 10.2563 4.95937 9.52969 6.63281 8.22656L3.00469 4.59844ZM15.7641 14.1703C17.8875 12.4312 20.625 11.4797 23.625 11.4188C23.5031 8.98594 22.6359 6.58594 20.9953 4.59844L13.5938 12L15.7641 14.1703ZM12 13.5938L4.59844 20.9953C6.58594 22.6312 8.98594 23.5031 11.4188 23.625C11.4797 20.625 12.4312 17.8875 14.1703 15.7641L12 13.5938ZM20.9953 19.4016C22.3875 17.7141 23.2219 15.7266 23.5172 13.6734C21.1688 13.7484 19.0406 14.475 17.3672 15.7734L20.9953 19.4016ZM8.23594 9.82969C6.10781 11.5734 3.37031 12.5297 0.375 12.5812C0.496875 15.0141 1.36406 17.4141 3.00469 19.4016L10.4062 12L8.23594 9.82969ZM13.6734 23.5172C15.7266 23.2219 17.7141 22.3875 19.4016 20.9953L15.7734 17.3672C14.475 19.0406 13.7484 21.1734 13.6734 23.5172Z" fill="black"/>
</svg>
