<svg width="24" height="24" viewBox="0 0 24 24" fill="none" xmlns="http://www.w3.org/2000/svg">
<path d="M19.8 19.2H4.2C3.87 19.2 3.6 19.47 3.6 19.8V21C3.6 21.33 3.87 21.6 4.2 21.6H19.8C20.13 21.6 20.4 21.33 20.4 21V19.8C20.4 19.47 20.13 19.2 19.8 19.2ZM22.2 7.20002C21.2063 7.20002 20.4 8.00627 20.4 9.00002C20.4 9.26627 20.46 9.51377 20.565 9.74252L17.85 11.37C17.2725 11.715 16.5263 11.52 16.1925 10.935L13.1363 5.58752C13.5375 5.25752 13.8 4.76252 13.8 4.20002C13.8 3.20627 12.9938 2.40002 12 2.40002C11.0063 2.40002 10.2 3.20627 10.2 4.20002C10.2 4.76252 10.4625 5.25752 10.8638 5.58752L7.8075 10.935C7.47375 11.52 6.72375 11.715 6.15 11.37L3.43875 9.74252C3.54 9.51752 3.60375 9.26627 3.60375 9.00002C3.60375 8.00627 2.7975 7.20002 1.80375 7.20002C0.81 7.20002 0 8.00627 0 9.00002C0 9.99377 0.80625 10.8 1.8 10.8C1.8975 10.8 1.995 10.785 2.08875 10.77L4.8 18H19.2L21.9113 10.77C22.005 10.785 22.1025 10.8 22.2 10.8C23.1938 10.8 24 9.99377 24 9.00002C24 8.00627 23.1938 7.20002 22.2 7.20002Z" fill="black"/>
</svg>
