<svg width="24" height="24" viewBox="0 0 24 24" fill="none" xmlns="http://www.w3.org/2000/svg">
<path d="M1.50466 23.1609C1.4531 23.6062 1.79997 23.9953 2.24997 23.9953L3.76404 24C4.14372 24 4.46247 23.7234 4.51404 23.3484C4.54685 23.1187 4.59841 22.8281 4.67341 22.5H19.3125C19.3875 22.8234 19.4484 23.1187 19.4765 23.3484C19.5281 23.7234 19.8468 24.0047 20.2265 24L21.7406 23.9953C22.1906 23.9953 22.5422 23.6062 22.4859 23.1609C22.2703 21.3844 21.2859 17.1141 16.9125 13.425C16.0875 14.0062 15.1734 14.5594 14.1703 15.0844C14.4609 15.3 14.7047 15.525 14.9672 15.75H8.98591C9.98435 14.9016 11.189 14.0812 12.675 13.3406C20.7422 9.33281 22.2234 3.08437 22.4953 0.839059C22.5468 0.393747 22.2 0.0046842 21.75 0.0046842L20.2312 -3.29567e-06C19.8515 -3.29567e-06 19.5328 0.276559 19.4812 0.651559C19.4484 0.881247 19.3968 1.17187 19.3218 1.5H4.6781C4.6031 1.17187 4.55154 0.885934 4.51872 0.651559C4.46716 0.276559 4.14841 -0.0046908 3.76872 -3.29567e-06L2.25466 0.0046842C1.80466 0.0046842 1.4531 0.393747 1.50466 0.839059C1.74841 2.85 2.97185 8.05312 8.99997 12C2.97654 15.9469 1.74841 21.15 1.50466 23.1609ZM12 10.2937C10.8234 9.65156 9.82497 8.9625 8.98591 8.25H15.0093C14.175 8.9625 13.1765 9.65625 12 10.2937ZM18.1453 4.5C17.8734 4.9875 17.5453 5.48906 17.1609 6H6.84372C6.45466 5.48906 6.12654 4.9875 5.85935 4.5H18.1453ZM5.85466 19.5C6.12654 19.0125 6.45466 18.5109 6.83904 18H17.1234C17.5125 18.5109 17.8453 19.0125 18.1172 19.5H5.85466Z" fill="black"/>
</svg>
