<svg width="24" height="24" viewBox="0 0 24 24" fill="none" xmlns="http://www.w3.org/2000/svg">
<path d="M12 0.375C5.57953 0.375 0.375 5.57953 0.375 12C0.375 18.4205 5.57953 23.625 12 23.625C18.4205 23.625 23.625 18.4205 23.625 12C23.625 5.57953 18.4205 0.375 12 0.375ZM15.8573 17.1375C15.6745 17.3194 15.4828 17.5102 15.3272 17.6663C15.187 17.8069 15.0881 17.9803 15.038 18.1683C14.9672 18.4336 14.91 18.7017 14.8144 18.9591L13.9992 21.1552C13.3542 21.2958 12.6867 21.375 12 21.375V20.0916C12.0792 19.5 11.6419 18.3919 10.9392 17.6892C10.658 17.408 10.5 17.0264 10.5 16.6284V15.128C10.5 14.5823 10.2061 14.0808 9.72844 13.8169C9.05484 13.4442 8.09672 12.9234 7.44047 12.593C6.90234 12.322 6.40453 11.977 5.95688 11.5734L5.91937 11.5397C5.59925 11.2507 5.31502 10.9243 5.07281 10.5675C4.63313 9.92203 3.91687 8.86031 3.45141 8.17031C4.41094 6.0375 6.14016 4.32469 8.28891 3.39422L9.41437 3.95719C9.91312 4.20656 10.5 3.84422 10.5 3.28641V2.75672C10.8745 2.69625 11.2556 2.65781 11.6433 2.64328L12.9698 3.96984C13.2628 4.26281 13.2628 4.73766 12.9698 5.03062L12.75 5.25L12.2653 5.73469C12.1191 5.88094 12.1191 6.11859 12.2653 6.26484L12.4852 6.48469C12.6314 6.63094 12.6314 6.86859 12.4852 7.01484L12.1102 7.38984C12.0397 7.46012 11.9443 7.49957 11.8448 7.49953H11.4234C11.3259 7.49953 11.2322 7.5375 11.1619 7.60594L10.6969 8.05828C10.6399 8.11379 10.602 8.18597 10.5887 8.26441C10.5754 8.34284 10.5873 8.42348 10.6228 8.49469L11.3536 9.95672C11.4783 10.2061 11.2969 10.4995 11.0184 10.4995H10.7541C10.6636 10.4995 10.5764 10.4667 10.5084 10.4077L10.0734 10.0298C9.975 9.94445 9.85603 9.88614 9.72823 9.86066C9.60042 9.83519 9.46819 9.84341 9.34453 9.88453L7.88344 10.3716C7.77189 10.4088 7.67487 10.4801 7.60614 10.5755C7.5374 10.6709 7.50043 10.7855 7.50047 10.9031C7.50047 11.1155 7.62047 11.3091 7.81031 11.4042L8.32969 11.6639C8.77078 11.8847 9.25734 11.9995 9.75047 11.9995C10.2436 11.9995 10.8094 13.2787 11.2505 13.4995H14.3794C14.7773 13.4995 15.1584 13.6575 15.4402 13.9387L16.0819 14.5805C16.35 14.8487 16.5005 15.2124 16.5005 15.5916C16.5004 15.8789 16.4435 16.1634 16.3331 16.4287C16.2228 16.694 16.0611 16.9349 15.8573 17.1375ZM19.9219 12.8555C19.6505 12.7875 19.4138 12.6211 19.2586 12.3881L18.4158 11.1239C18.2925 10.9392 18.2266 10.7221 18.2266 10.5C18.2266 10.2779 18.2925 10.0608 18.4158 9.87609L19.3341 8.49891C19.4428 8.33625 19.5919 8.20406 19.7672 8.11688L20.3756 7.81266C21.0094 9.07453 21.375 10.4939 21.375 12C21.375 12.4064 21.3403 12.8044 21.2897 13.1972L19.9219 12.8555Z" fill="black"/>
</svg>
