<svg width="24" height="24" viewBox="0 0 24 24" fill="none" xmlns="http://www.w3.org/2000/svg">
<path d="M9.57657 0.234309C4.9172 1.14368 1.16251 4.889 0.243758 9.53431C-1.49062 18.2999 6.4172 24.8343 12.375 23.9109C14.3063 23.6109 15.2531 21.3515 14.3672 19.6124C13.2844 17.4843 14.8313 14.9999 17.2219 14.9999H20.9578C22.6359 14.9999 23.9953 13.6124 24 11.939C23.9766 4.5515 17.2547 -1.261 9.57657 0.234309ZM4.50001 14.9999C3.67032 14.9999 3.00001 14.3296 3.00001 13.4999C3.00001 12.6702 3.67032 11.9999 4.50001 11.9999C5.3297 11.9999 6.00001 12.6702 6.00001 13.4999C6.00001 14.3296 5.3297 14.9999 4.50001 14.9999ZM6.00001 8.99993C5.17032 8.99993 4.50001 8.32962 4.50001 7.49993C4.50001 6.67025 5.17032 5.99993 6.00001 5.99993C6.8297 5.99993 7.50001 6.67025 7.50001 7.49993C7.50001 8.32962 6.8297 8.99993 6.00001 8.99993ZM12 5.99993C11.1703 5.99993 10.5 5.32962 10.5 4.49993C10.5 3.67025 11.1703 2.99993 12 2.99993C12.8297 2.99993 13.5 3.67025 13.5 4.49993C13.5 5.32962 12.8297 5.99993 12 5.99993ZM18 8.99993C17.1703 8.99993 16.5 8.32962 16.5 7.49993C16.5 6.67025 17.1703 5.99993 18 5.99993C18.8297 5.99993 19.5 6.67025 19.5 7.49993C19.5 8.32962 18.8297 8.99993 18 8.99993Z" fill="black"/>
</svg>
