<svg width="24" height="24" viewBox="0 0 24 24" fill="none" xmlns="http://www.w3.org/2000/svg">
<path d="M23.3391 6.66084L21.1781 8.82178C20.9578 9.04209 20.6016 9.04209 20.3812 8.82178L15.1781 3.61865C14.9578 3.39834 14.9578 3.04209 15.1781 2.82178L17.3391 0.66084C18.2156 -0.215723 19.6406 -0.215723 20.5219 0.66084L23.3391 3.47803C24.2203 4.35459 24.2203 5.77959 23.3391 6.66084ZM13.3219 4.67803L1.01249 16.9874L0.0187379 22.6827C-0.1172 23.4515 0.553113 24.1171 1.32186 23.9858L7.01718 22.9874L19.3266 10.678C19.5469 10.4577 19.5469 10.1015 19.3266 9.88115L14.1234 4.67803C13.8984 4.45772 13.5422 4.45772 13.3219 4.67803ZM5.81718 15.9327C5.55936 15.6749 5.55936 15.2624 5.81718 15.0046L13.0359 7.78584C13.2937 7.52803 13.7062 7.52803 13.9641 7.78584C14.2219 8.04365 14.2219 8.45615 13.9641 8.71396L6.7453 15.9327C6.48749 16.1905 6.07499 16.1905 5.81718 15.9327ZM4.12499 19.8749H6.37499V21.5765L3.35155 22.1062L1.89374 20.6483L2.42343 17.6249H4.12499V19.8749Z" fill="black"/>
</svg>
